<?xml version="1.0" encoding="UTF-8"?>
<svg version="1.1" xmlns="http://www.w3.org/2000/svg" width="1024" height="1024">
<path d="M0 0 C1.7104467 -0.00302369 3.42089205 -0.00691426 5.13133502 -0.01159257 C9.81338952 -0.0218534 14.49536727 -0.01969562 19.17742801 -0.01541197 C24.23415367 -0.01294124 29.29086103 -0.02196327 34.34757996 -0.02944946 C44.24768365 -0.04218924 54.14776021 -0.04399102 64.04787073 -0.0416492 C72.09719144 -0.03986493 80.14650394 -0.04161803 88.19582367 -0.04587364 C89.34220156 -0.04646883 90.48857946 -0.04706402 91.66969608 -0.04767724 C93.9987155 -0.04888902 96.32773492 -0.05010316 98.65675434 -0.05131962 C120.49177379 -0.06219257 142.32677778 -0.06003394 164.16179809 -0.05393478 C184.12359088 -0.04876692 204.08533485 -0.06001805 224.04711798 -0.07903299 C244.55723186 -0.09842005 265.06732265 -0.1066658 285.57744575 -0.10290974 C297.08690736 -0.10099888 308.59632743 -0.10347401 320.10578156 -0.11762428 C329.90495434 -0.12955015 339.70406003 -0.13092948 349.50323376 -0.11883412 C354.49938868 -0.11295368 359.49542093 -0.11182286 364.49156761 -0.12383652 C369.07239308 -0.13472313 373.65299388 -0.13155902 378.23380896 -0.11757483 C379.88381542 -0.11493552 381.53383965 -0.11727016 383.18382862 -0.1253107 C397.85285784 -0.19178649 410.7170902 1.85764562 424.13665771 8.26069641 C424.91525146 8.62936829 425.69384521 8.99804016 426.49603271 9.37788391 C436.9905068 14.77397874 445.37532132 22.66972584 452.13665771 32.26069641 C452.68064209 33.02897766 453.22462646 33.79725891 453.78509521 34.58882141 C465.52268746 52.58249075 465.29532127 74.19720887 465.27037048 94.90940857 C465.27224461 96.41466766 465.27454767 97.91992627 465.27723581 99.42518413 C465.28328536 103.51218448 465.28322843 107.59916417 465.28204143 111.68616796 C465.28183569 116.11292023 465.28737241 120.53966616 465.292099 124.96641541 C465.30036695 133.61840121 465.30315203 142.27038019 465.30371138 150.92236961 C465.3041881 157.95752855 465.30625059 164.99268525 465.309412 172.02784348 C465.31820577 192.00525529 465.32283304 211.98266175 465.32208153 231.96007551 C465.32202159 233.57188823 465.32202159 233.57188823 465.32196045 235.21626282 C465.32189913 236.83005793 465.32189913 236.83005793 465.32183657 238.47645496 C465.32142981 255.92561054 465.33101023 273.37474457 465.34509882 290.82389392 C465.35947472 308.77132654 465.36636842 326.71874865 465.36550504 344.66618717 C465.36517363 354.73020202 465.36789644 364.79419424 465.37868309 374.85820389 C465.38780378 383.4220434 465.38995023 391.98585001 465.38317367 400.54969229 C465.37991722 404.91398519 465.37982019 409.278215 465.38852692 413.64250183 C465.39643096 417.64571605 465.39492101 421.64881755 465.38624278 425.65202914 C465.38471642 427.09189863 465.38649095 428.53177671 465.39210286 429.97163607 C465.48364316 455.14671076 459.62851764 475.01455117 442.05072021 493.44819641 C428.05480562 506.76772852 408.08184881 514.3672712 388.87283516 514.39491749 C388.17255306 514.39726972 387.47227096 514.39962195 386.75076818 514.40204546 C384.41056098 514.40868806 382.0704099 514.40827868 379.73019409 514.40786743 C378.03272508 514.41116902 376.33525685 514.4148952 374.63778961 514.41900891 C369.97757431 514.42900358 365.3173719 514.43274162 360.65714741 514.43539822 C355.62894458 514.43930881 350.60075188 514.44888663 345.57255554 514.45761108 C333.43142312 514.47735435 321.29028988 514.48743907 309.14914542 514.49633887 C303.42719742 514.50072535 297.70525034 514.50609123 291.98330307 514.51132774 C272.95453903 514.52833801 253.92577556 514.54283123 234.89700508 514.55007648 C229.96126428 514.55198628 225.02552349 514.55390663 220.08978271 514.55586243 C218.8630766 514.55634617 217.63637049 514.55682991 216.37249146 514.55732831 C196.50952317 514.56562509 176.64661516 514.59095699 156.78367318 514.6234431 C136.37647434 514.6565464 115.9693061 514.67452821 95.56208026 514.67772073 C84.11002479 514.67988281 72.65805724 514.68858725 61.20602798 514.7141819 C51.45114439 514.73593359 41.69637007 514.74391736 31.94146498 514.73421512 C26.96922056 514.72968336 21.99720141 514.731491 17.02498817 514.75097656 C12.46234078 514.76870173 7.90008144 514.76753537 3.33742939 514.75207927 C1.69736916 514.74971731 0.05728139 514.75395239 -1.58273695 514.76590792 C-15.53477013 514.86121773 -29.8366178 513.31014934 -42.30084229 506.51069641 C-43.28419556 505.99527283 -43.28419556 505.99527283 -44.28741455 505.46943665 C-50.03000721 502.36366939 -55.04685754 498.67229278 -59.86334229 494.26069641 C-60.63033447 493.59682922 -61.39732666 492.93296204 -62.18756104 492.24897766 C-76.87614943 478.75742194 -82.6374411 459.599845 -83.86334229 440.26069641 C-84.00100899 435.2091427 -84.00302795 430.15912093 -83.99705505 425.10609436 C-83.99892648 423.59348884 -84.0012285 422.08088379 -84.00392038 420.5682795 C-84.0100037 416.43770839 -84.0099089 412.30715762 -84.008726 408.17658305 C-84.00852111 403.71155028 -84.01404909 399.2465239 -84.01878357 394.78149414 C-84.02707146 386.04359686 -84.02983756 377.30570632 -84.03039595 368.56780544 C-84.03087196 361.46197867 -84.03293095 354.35615413 -84.03609657 347.25032806 C-84.0448978 327.08242859 -84.04951674 306.91453443 -84.0487661 286.74663302 C-84.04872614 285.66056593 -84.04868619 284.57449884 -84.04864502 283.45552063 C-84.04860414 282.36812018 -84.04856326 281.28071973 -84.04852114 280.16036776 C-84.04811474 262.54020699 -84.05768405 244.9200676 -84.07178339 227.29991302 C-84.08616249 209.18652205 -84.09305274 191.07314151 -84.09218961 172.95974469 C-84.09185819 162.79893163 -84.0945813 152.63814098 -84.10536766 142.47733307 C-84.11449283 133.82629827 -84.11663135 125.17529606 -84.10985824 116.52425852 C-84.1066033 112.11532085 -84.10649908 107.70644562 -84.11521149 103.29751396 C-84.12312295 99.25210542 -84.12159812 95.20680835 -84.11292735 91.16140237 C-84.11140254 89.70723384 -84.11316955 88.25305679 -84.11878743 86.79889831 C-84.20419741 63.09876627 -80.03255855 41.36702628 -63.17974854 23.57319641 C-52.38428201 12.79593472 -41.6537223 6.21029309 -26.86334229 2.26069641 C-26.21122339 2.08460163 -25.5591045 1.90850686 -24.88722444 1.72707587 C-16.64661873 -0.19891008 -8.40515945 -0.02109717 0 0 Z " fill="#008DFE" transform="translate(320.86334228515625,229.7393035888672)"/>
<path d="M0 0 C0.88067491 -0.00226556 1.76134982 -0.00453111 2.66871184 -0.00686532 C5.61954254 -0.01319512 8.5703272 -0.01237661 11.52116394 -0.0115509 C13.63697367 -0.01454304 15.75278285 -0.01794569 17.86859131 -0.02172852 C23.61658587 -0.03056739 29.36456554 -0.03290659 35.11256623 -0.0335443 C39.9112335 -0.03449378 44.70989729 -0.03817255 49.50856322 -0.0417164 C60.8307991 -0.04986061 72.15302703 -0.05230067 83.4752655 -0.05158997 C95.1535074 -0.05098924 106.83170309 -0.06154022 118.50993329 -0.07733363 C128.53725458 -0.090411 138.56456077 -0.09577378 148.59189051 -0.09513456 C154.5802874 -0.09487962 160.56864324 -0.09772852 166.55703163 -0.10831261 C172.19013316 -0.1179968 177.82315441 -0.11807051 183.45625877 -0.11079597 C185.5218149 -0.10975052 187.58737604 -0.11211067 189.65292358 -0.11815643 C192.47663631 -0.12588489 195.30007244 -0.12122581 198.1237793 -0.11352539 C198.9375108 -0.11866895 199.7512423 -0.12381252 200.58963233 -0.12911195 C210.03160785 -0.07237069 218.92385642 2.28013638 226.04924011 8.77043152 C232.15543025 15.49630927 234.36127521 22.92988484 234.39953613 31.9379425 C234.41026909 33.67875847 234.41026909 33.67875847 234.42121887 35.45474243 C234.42390778 36.71923721 234.42659668 37.98373199 234.42936707 39.2865448 C234.43563737 40.63887708 234.44228467 41.99120765 234.44927979 43.34353638 C234.47025877 47.77618728 234.4806778 52.20883828 234.49064636 56.64152527 C234.49469651 58.17204175 234.49881351 59.70255806 234.50299644 61.23307419 C234.5220362 68.42679579 234.53626862 75.62050722 234.54460841 82.81424916 C234.5543704 91.09628402 234.58066769 99.37805088 234.62110931 107.65999138 C234.65135315 114.07549987 234.66608517 120.49093189 234.66938943 126.90651023 C234.67173087 130.73155311 234.68057199 134.55630929 234.7058506 138.38127518 C234.72928129 141.9847202 234.73330521 145.58769282 234.72308922 149.19119453 C234.72236469 151.1273417 234.74135071 153.06346569 234.76115417 154.99951172 C234.69822209 165.67090402 232.63978806 174.60277097 225.11564636 182.48136902 C222.32395043 184.9570239 219.62181131 186.51138682 216.25236511 188.13371277 C215.54351795 188.49171274 214.83467079 188.84971272 214.10434341 189.21856117 C210.12111843 190.49671069 206.4046652 190.41634664 202.24571228 190.40113831 C200.88288097 190.40793498 200.88288097 190.40793498 199.49251771 190.41486895 C196.44724591 190.42753194 193.40215252 190.42589134 190.3568573 190.42424011 C188.17370371 190.43022422 185.99055224 190.4370295 183.80740356 190.44459534 C177.87545505 190.46227575 171.94356423 190.46695162 166.01159191 190.46822691 C161.05892395 190.47012582 156.10626944 190.47748338 151.15360665 190.4845711 C140.13454101 190.49993035 129.1155023 190.50590833 118.0964267 190.5045604 C117.43551821 190.50448048 116.77460972 190.50440057 116.09367371 190.50431824 C115.43195491 190.50423648 114.77023612 190.50415471 114.08846524 190.50407048 C104.03643684 190.5033085 93.98453275 190.51889325 83.93254089 190.54533386 C72.25173038 190.57595331 60.5710117 190.59285003 48.89015889 190.59140742 C42.70997527 190.59089769 36.52995078 190.59658698 30.34980011 190.61776352 C24.53522984 190.63714294 18.72097054 190.63727211 12.90638924 190.62273026 C10.77513487 190.62064062 8.64386105 190.6253522 6.51264 190.63745117 C3.59704703 190.65292774 0.68252309 190.64357921 -2.23304749 190.62818909 C-3.07110278 190.63847621 -3.90915808 190.64876334 -4.772609 190.6593622 C-13.74137126 190.55515861 -20.56239008 186.97926058 -27.02497864 180.91496277 C-35.3922265 172.26311464 -35.04638857 161.87295011 -35.03816223 150.52677917 C-35.0441579 149.17385491 -35.05096581 147.82093405 -35.05851746 146.46801758 C-35.07607667 142.81708336 -35.08086847 139.16624308 -35.08214903 135.51527071 C-35.08357665 133.22845151 -35.08785768 130.94165573 -35.09314346 128.65484238 C-35.11160867 120.66047922 -35.11981827 112.66618248 -35.11824036 104.67179871 C-35.11703912 97.24575764 -35.13814681 89.82000728 -35.16972768 82.39403975 C-35.19595994 75.99542406 -35.20660479 69.59690295 -35.20532954 63.19823396 C-35.20482205 59.38668144 -35.21038662 55.57538776 -35.23168564 51.76388931 C-35.2511866 48.17678404 -35.25111278 44.59018149 -35.23665237 41.00305748 C-35.23359696 39.07650665 -35.25015631 37.14995511 -35.26753235 35.22348022 C-35.19276201 24.78036209 -33.192924 15.60511535 -25.81013489 7.85636902 C-17.99567483 1.32951886 -9.89104167 -0.01866997 0 0 Z " fill="#EDF3F7" transform="translate(358.7476348876953,325.8662872314453)"/>
<path d="M0 0 C3 2.4375 3 2.4375 5 5 C5.495 5.495 5.495 5.495 6 6 C6.10753975 7.90982803 6.14412194 9.82366762 6.15390015 11.73649597 C6.16250061 12.98290863 6.17110107 14.22932129 6.17996216 15.51350403 C6.18439783 16.90768391 6.18869615 18.30186423 6.19287109 19.69604492 C6.2007689 21.15442095 6.20903765 22.61279501 6.21765137 24.07116699 C6.24391516 28.87424848 6.25918625 33.67733886 6.2734375 38.48046875 C6.27879595 40.13243427 6.28417345 41.78439973 6.28956985 43.43636513 C6.3112076 50.30850944 6.32994386 57.18065137 6.34119225 64.05282116 C6.35742649 73.90724089 6.39058096 83.76126595 6.44759309 93.61553687 C6.48629248 100.54043434 6.50582509 107.46522627 6.51111281 114.39022905 C6.51476717 118.52766266 6.52679612 122.66467576 6.55921555 126.80199242 C6.58929545 130.69680019 6.59560871 134.59093307 6.58383179 138.48583221 C6.58361102 139.91367674 6.59191895 141.34155254 6.60948563 142.76928902 C6.75058192 154.89961136 6.75058192 154.89961136 3.59024048 158.83735657 C-0.01856085 161.85041677 -0.01856085 161.85041677 -2.9375 162.125 C-3.87916016 162.25261719 -3.87916016 162.25261719 -4.83984375 162.3828125 C-10.92893229 161.30373352 -16.63382554 155.23416764 -21.375 151.5 C-27.26236522 146.88810016 -33.18458506 142.33541162 -39.1875 137.875 C-45.07475197 133.4932139 -50.83896001 128.98128192 -56.54956055 124.37207031 C-60.6547279 121.06175065 -64.80704766 117.82322061 -69 114.625 C-83.53272645 103.4896477 -83.53272645 103.4896477 -84.26742554 98.00283813 C-84.27504913 97.30145721 -84.28267273 96.60007629 -84.29052734 95.87744141 C-84.30328705 95.07625885 -84.31604675 94.27507629 -84.32919312 93.44961548 C-84.33141876 92.592258 -84.33364441 91.73490051 -84.3359375 90.8515625 C-84.3459227 89.51634048 -84.3459227 89.51634048 -84.35610962 88.15414429 C-84.36622346 86.27303124 -84.37092703 84.3918824 -84.37060547 82.51074219 C-84.37497415 79.64197241 -84.41129391 76.77474725 -84.44921875 73.90625 C-84.45508819 72.07552607 -84.45905673 70.24479487 -84.4609375 68.4140625 C-84.47530853 67.56075348 -84.48967957 66.70744446 -84.50448608 65.82827759 C-84.46305891 60.39182608 -83.64992105 57.28220017 -80 53 C-77.80859375 50.99291992 -77.80859375 50.99291992 -75.4375 49.23046875 C-74.56480469 48.57433594 -73.69210937 47.91820312 -72.79296875 47.2421875 C-71.87128906 46.56414062 -70.94960938 45.88609375 -70 45.1875 C-69.04738281 44.47464844 -68.09476563 43.76179688 -67.11328125 43.02734375 C-64.41487231 41.00997936 -61.70834962 39.00398618 -59 37 C-56.99713309 35.50377227 -54.99863741 34.00188306 -53 32.5 C-52.09894531 31.82710938 -51.19789063 31.15421875 -50.26953125 30.4609375 C-46.64450765 27.74246452 -43.0485918 24.9859485 -39.44848633 22.23461914 C-32.10760535 16.62558628 -24.75880972 11.03118651 -17.3125 5.5625 C-16.69528076 5.1082666 -16.07806152 4.6540332 -15.44213867 4.18603516 C-10.16786862 0.33330142 -6.56619267 -1.05467343 0 0 Z " fill="#EEF3F7" transform="translate(693,341)"/>
<path d="M0 0 C3.54102706 2.81091839 6.79893363 5.80989619 10 9 C10.97453125 9.93972656 10.97453125 9.93972656 11.96875 10.8984375 C20.56814841 19.83728584 26 33.60282582 26 46 C-16.24 46 -58.48 46 -102 46 C-100.01670275 28.15032478 -93.11628159 14.53062581 -79.3984375 2.76953125 C-57.39146513 -14.13207722 -23.13896646 -15.93232652 0 0 Z " fill="#EDF3F7" transform="translate(684,656)"/>
<path d="M0 0 C12.7509248 9.97052606 22.03433785 22.82366097 25 39 C25 41.31 25 43.62 25 46 C-16.25 46 -57.5 46 -100 46 C-98.7432787 32.17606568 -95.48514556 22.84985826 -87 12 C-85.9171875 10.4840625 -85.9171875 10.4840625 -84.8125 8.9375 C-64.73675443 -14.1561681 -24.64662823 -17.28835951 0 0 Z " fill="#EDF3F7" transform="translate(547,656)"/>
<path d="M0 0 C14.16824907 11.72742016 20.98460441 25.86143965 23 44 C-18.58 44 -60.16 44 -103 44 C-101.56380884 29.63808843 -97.28397458 18.98485542 -88 8 C-87.40703125 7.28328125 -86.8140625 6.5665625 -86.203125 5.828125 C-64.78201665 -17.79002011 -24.7576588 -18.1464342 0 0 Z " fill="#EDF3F7" transform="translate(415,658)"/>
<path d="M0 0 C7.8721697 5.89313263 13.1529621 13.91820668 15.09765625 23.5703125 C16.1289711 34.17812239 14.40688414 42.70451941 8.04296875 51.3671875 C1.4600348 59.06625904 -5.61176806 64.69048048 -15.99121094 65.79199219 C-28.80844798 66.4635626 -38.61293285 65.08452096 -48.79296875 56.69140625 C-56.40445799 49.03763096 -59.87393892 40.52873794 -60.33984375 29.8828125 C-60.14833211 19.27081451 -56.3555843 11.05544662 -48.9921875 3.47265625 C-35.37429868 -8.92344068 -15.51708516 -9.4060008 0 0 Z " fill="#EEF3F7" transform="translate(667.90234375,569.4296875)"/>
<path d="M0 0 C4.99785684 4.6210343 8.3817834 9.75048801 11 16 C11.4125 16.928125 11.825 17.85625 12.25 18.8125 C14.5829308 28.72745591 12.8504033 38.43433262 7.75 47.1875 C1.91695262 55.77263799 -5.15679608 60.71893203 -15 64 C-28.04704801 64.80148029 -38.58983941 64.29484254 -49.12109375 55.7421875 C-57.1546937 48.29315304 -61.77454878 39.06898145 -62.5 28 C-61.85346879 18.13518509 -58.07635977 8.89527183 -51 2 C-36.18898831 -10.12052216 -15.72337625 -11.67158314 0 0 Z " fill="#EDF3F8" transform="translate(399,571)"/>
<path d="M0 0 C8.01699194 5.18746537 12.80244338 11.93688905 16.49609375 20.76953125 C18.28804967 32.1185854 17.02712239 42.03658073 10.30859375 51.58203125 C4.12061356 59.13136708 -2.93802959 65.45827513 -12.98535156 66.55517578 C-25.89074561 67.45052609 -35.709276 65.74459655 -45.90234375 57.31640625 C-49.2756549 54.03356704 -51.68896289 50.447072 -53.94140625 46.33203125 C-54.28171875 45.74164062 -54.62203125 45.15125 -54.97265625 44.54296875 C-58.68321077 36.74393286 -58.2822193 25.06400119 -55.56640625 17.01953125 C-50.85680738 7.20233923 -42.98936805 0.20340007 -32.94140625 -3.66796875 C-31.97203125 -4.10109375 -31.00265625 -4.53421875 -30.00390625 -4.98046875 C-19.48530995 -7.34178629 -9.15456244 -5.5054301 0 0 Z " fill="#EDF3F7" transform="translate(530.94140625,568.66796875)"/>
<path d="M0 0 C0.70125 0.721875 1.4025 1.44375 2.125 2.1875 C4.92770745 4.99823813 7.92262792 7.49516226 11 10 C10.01 10.495 10.01 10.495 9 11 C2.18181818 6.75757576 2.18181818 6.75757576 0 3 C0 2.01 0 1.02 0 0 Z " fill="#187BFB" transform="translate(328,502)"/>
<path d="M0 0 C2.97 0.495 2.97 0.495 6 1 C5.67 1.99 5.34 2.98 5 4 C2.03 3.505 2.03 3.505 -1 3 C-0.67 2.01 -0.34 1.02 0 0 Z " fill="#DEEFF9" transform="translate(518,564)"/>
<path d="M0 0 C2 1 2 1 2 1 Z " fill="#0E92E5" transform="translate(725,743)"/>
<path d="M0 0 C2 1 2 1 2 1 Z " fill="#1693E0" transform="translate(248,712)"/>
<path d="" fill="#1591DF" transform="translate(0,0)"/>
<path d="" fill="#1394DE" transform="translate(0,0)"/>
<path d="" fill="#1392DD" transform="translate(0,0)"/>
<path d="" fill="#0F92E8" transform="translate(0,0)"/>
<path d="" fill="#1190E0" transform="translate(0,0)"/>
<path d="" fill="#54745C" transform="translate(0,0)"/>
<path d="" fill="#53715C" transform="translate(0,0)"/>
<path d="" fill="#56735C" transform="translate(0,0)"/>
<path d="" fill="#50715D" transform="translate(0,0)"/>
<path d="" fill="#54725B" transform="translate(0,0)"/>
<path d="" fill="#54735B" transform="translate(0,0)"/>
<path d="" fill="#58755B" transform="translate(0,0)"/>
<path d="" fill="#53735B" transform="translate(0,0)"/>
<path d="" fill="#507260" transform="translate(0,0)"/>
<path d="" fill="#50735F" transform="translate(0,0)"/>
<path d="" fill="#4E7361" transform="translate(0,0)"/>
<path d="" fill="#4E725F" transform="translate(0,0)"/>
<path d="" fill="#5A775C" transform="translate(0,0)"/>
<path d="" fill="#4D7362" transform="translate(0,0)"/>
<path d="" fill="#55745B" transform="translate(0,0)"/>
<path d="" fill="#55735D" transform="translate(0,0)"/>
<path d="" fill="#4B7265" transform="translate(0,0)"/>
<path d="" fill="#50725E" transform="translate(0,0)"/>
<path d="" fill="#55745B" transform="translate(0,0)"/>
<path d="" fill="#58755D" transform="translate(0,0)"/>
<path d="" fill="#57745A" transform="translate(0,0)"/>
<path d="" fill="#57735C" transform="translate(0,0)"/>
<path d="" fill="#0E8FDF" transform="translate(0,0)"/>
<path d="" fill="#1392E2" transform="translate(0,0)"/>
<path d="" fill="#0E93E3" transform="translate(0,0)"/>
<path d="" fill="#1491DF" transform="translate(0,0)"/>
<path d="" fill="#1694DD" transform="translate(0,0)"/>
<path d="" fill="#1692DD" transform="translate(0,0)"/>
<path d="" fill="#0D93E3" transform="translate(0,0)"/>
<path d="" fill="#1091E4" transform="translate(0,0)"/>
<path d="" fill="#56755E" transform="translate(0,0)"/>
<path d="" fill="#1993DB" transform="translate(0,0)"/>
<path d="" fill="#1494E1" transform="translate(0,0)"/>
<path d="" fill="#1295E7" transform="translate(0,0)"/>
<path d="" fill="#587760" transform="translate(0,0)"/>
<path d="" fill="#0E94E9" transform="translate(0,0)"/>
<path d="" fill="#0D91E8" transform="translate(0,0)"/>
<path d="" fill="#0E91E9" transform="translate(0,0)"/>
<path d="" fill="#567660" transform="translate(0,0)"/>
<path d="" fill="#0E94E8" transform="translate(0,0)"/>
<path d="" fill="#1094E8" transform="translate(0,0)"/>
<path d="" fill="#54765F" transform="translate(0,0)"/>
<path d="" fill="#1093E7" transform="translate(0,0)"/>
<path d="" fill="#1091E5" transform="translate(0,0)"/>
<path d="" fill="#557760" transform="translate(0,0)"/>
<path d="" fill="#1195E9" transform="translate(0,0)"/>
<path d="" fill="#1194E7" transform="translate(0,0)"/>
<path d="" fill="#1392DE" transform="translate(0,0)"/>
<path d="" fill="#1491E1" transform="translate(0,0)"/>
<path d="" fill="#0B94E8" transform="translate(0,0)"/>
<path d="" fill="#57765D" transform="translate(0,0)"/>
<path d="" fill="#547962" transform="translate(0,0)"/>
<path d="" fill="#58755E" transform="translate(0,0)"/>
<path d="" fill="#537968" transform="translate(0,0)"/>
<path d="" fill="#58765D" transform="translate(0,0)"/>
<path d="" fill="#557761" transform="translate(0,0)"/>
<path d="" fill="#567762" transform="translate(0,0)"/>
<path d="" fill="#557762" transform="translate(0,0)"/>
<path d="" fill="#577864" transform="translate(0,0)"/>
</svg>
